<svg version="1.1" id="Layer_1" xmlns="http://www.w3.org/2000/svg" xmlns:xlink="http://www.w3.org/1999/xlink" x="0px" y="0px"
	 width="100%" viewBox="0 0 739 739" enable-background="new 0 0 739 739" xml:space="preserve">
<path fill="#4B2C57" opacity="1.000000" stroke="none" 
	d="
M1.000000,377.000000 
	C1.000000,251.685272 1.000000,126.370552 1.000000,1.027913 
	C247.278152,1.027913 493.556305,1.027913 739.917236,1.027913 
	C739.917236,247.241547 739.917236,493.483154 739.917236,739.862366 
	C493.666718,739.862366 247.333374,739.862366 1.000000,739.862366 
	C1.000000,657.230896 1.000000,574.576721 1.453658,491.500427 
	C4.492204,491.078339 7.077092,491.078339 9.540785,491.078339 
	C9.929607,488.594940 10.200595,486.864136 10.455125,485.238464 
	C27.358206,485.238464 43.904816,485.238464 60.513447,485.238464 
	C60.813728,487.309753 61.064709,489.040955 61.309807,490.731567 
	C78.195885,490.731567 94.724983,490.731567 111.309975,490.731567 
	C111.649857,488.654694 111.932159,486.929596 112.261330,484.918182 
	C128.184525,484.918182 143.792435,484.882355 159.399231,484.998016 
	C160.448822,485.005768 161.489960,486.157806 162.524780,487.003296 
	C163.864166,491.149628 165.096268,495.118927 166.677917,498.943634 
	C166.944611,499.588562 168.717911,499.872009 169.797806,499.878662 
	C180.624405,499.944946 191.452057,499.863403 202.278305,499.954895 
	C205.129578,499.978973 206.201782,498.796600 205.991104,496.067200 
	C205.888885,494.742706 206.129196,493.382904 205.951614,492.074738 
	C205.372375,487.807617 207.308395,486.625641 211.354538,486.737671 
	C213.832306,486.806305 216.344299,485.639679 218.887421,484.562561 
	C218.929810,480.628784 218.925674,477.160248 219.391235,473.722626 
	C223.905121,473.811890 227.949295,473.870209 231.998535,474.401642 
	C232.005936,481.518524 232.191589,488.169281 231.940125,494.803406 
	C231.795242,498.625488 232.877167,500.150391 236.946945,499.978699 
	C244.076309,499.677856 251.228790,499.976074 258.369141,499.865356 
	C262.632141,499.799225 268.150879,500.931641 270.761230,498.737152 
	C272.938934,496.906403 271.705414,491.017944 271.988129,486.960510 
	C271.993591,486.994476 271.925751,486.983215 272.392120,486.929993 
	C273.522339,486.861023 274.186127,486.835022 274.850037,486.830994 
	C284.132263,486.774750 284.278198,486.784088 284.833618,477.377777 
	C285.032379,474.011963 286.788483,473.722656 289.377991,473.732208 
	C309.631500,473.806946 329.885162,473.834259 350.466797,473.961975 
	C354.900055,477.285767 359.005310,480.523743 363.100189,484.243530 
	C363.086609,488.387726 363.239960,492.058960 363.034119,495.709930 
	C362.845825,499.048767 364.268951,500.021057 367.438385,499.971802 
	C376.590210,499.829620 385.745758,499.925293 395.298004,499.889130 
	C407.829987,503.458862 419.914856,507.324341 433.293488,506.931580 
	C440.255829,506.949524 446.738403,506.945557 453.655731,506.973755 
	C456.250824,506.956024 458.441010,507.120514 460.567108,506.824432 
	C498.082275,501.600433 529.237244,484.686218 553.313538,455.396545 
	C572.196716,432.424622 582.842712,405.961639 584.957642,375.708069 
	C584.963318,367.798431 584.959961,360.369171 584.952515,352.498840 
	C582.416870,340.085754 581.181274,327.652863 577.117676,316.225647 
	C563.344055,277.492523 537.132812,249.728577 499.524658,233.068085 
	C484.899994,226.589340 469.607452,222.209793 452.888245,222.120941 
	C445.624115,222.052689 438.851013,222.021484 431.636139,221.993393 
	C427.086700,222.469193 422.794067,222.336105 418.904694,223.523590 
	C405.011536,227.765411 391.255219,232.455444 376.942749,236.946701 
	C332.723236,236.873276 289.008148,236.825943 245.293045,236.786621 
	C231.983871,236.774643 231.983856,236.784760 231.563324,250.018677 
	C227.066269,250.148972 223.034805,250.288803 218.804443,250.741898 
	C218.512070,251.709732 218.353867,252.362411 218.334885,253.019119 
	C218.066589,262.309723 218.078781,262.441467 208.744629,262.980347 
	C205.696304,263.156311 205.217133,264.612274 205.237793,267.099976 
	C205.297195,274.249725 205.254379,281.400360 205.253983,288.550629 
	C205.252899,309.003754 205.258560,329.456879 205.245178,349.910004 
	C205.243576,352.365356 205.753235,355.094421 201.753906,355.010376 
	C195.604126,354.881134 189.441772,355.137299 183.304031,354.836426 
	C182.129883,354.778870 180.377060,353.077179 180.050781,351.830536 
	C179.245621,348.754028 180.218903,344.138641 178.419403,342.679138 
	C176.367645,341.015045 172.085648,342.096130 168.772568,341.995117 
	C167.941849,341.969788 167.109848,341.986481 166.484253,341.559265 
	C167.502563,328.219147 167.502563,328.219147 154.776245,328.219147 
	C154.443237,328.219147 154.110229,328.219147 153.777222,328.219147 
	C140.018494,328.219147 140.018494,328.219147 139.566437,342.009277 
	C135.392822,342.052429 131.682800,342.098907 127.760925,342.190796 
	C127.271439,342.401154 127.141273,342.644836 127.114441,343.436096 
	C127.100868,351.612640 127.131439,359.320435 127.160355,367.277832 
	C127.158699,367.527496 127.337685,367.994049 127.640533,368.223206 
	C130.720627,368.565308 133.529709,368.468689 136.261139,368.883423 
	C137.543533,369.078186 138.676376,370.257843 139.416077,370.985229 
	C130.039886,370.979309 121.124626,370.979309 112.342422,370.979309 
	C111.944267,373.374969 111.679260,374.969452 111.389664,376.711914 
	C94.563965,376.711914 77.999275,376.711914 61.376911,376.711914 
	C60.957928,374.734741 60.593323,373.014221 60.248165,371.385437 
	C43.404423,371.385437 26.861042,371.385437 10.377242,371.385437 
	C10.104888,373.397614 9.888152,374.998871 9.617295,377.000000 
	C6.594861,377.000000 3.797430,377.000000 1.000000,377.000000 
M526.878845,72.991478 
	C534.439941,72.991478 542.001038,72.991478 549.777222,72.991478 
	C549.777222,68.868141 549.777222,65.161018 549.777222,61.064556 
	C541.702026,61.064556 533.815063,61.064556 525.991516,60.121048 
	C525.991516,52.560638 525.991516,45.000225 525.991516,37.223747 
	C521.870422,37.223747 518.163574,37.223747 514.071960,37.223747 
	C514.071960,45.293446 514.071960,53.178997 513.126709,61.007652 
	C505.565247,61.007652 498.003815,61.007652 490.224976,61.007652 
	C490.224976,65.127327 490.224976,68.834419 490.224976,72.927986 
	C498.292145,72.927986 506.178406,72.927986 514.007629,73.873161 
	C514.007629,81.435318 514.007629,88.997475 514.007629,96.775970 
	C518.129639,96.775970 521.836975,96.775970 525.935303,96.775970 
	C525.935303,88.703476 525.935303,80.815750 526.878845,72.991478 
M338.903412,611.796997 
	C335.084564,611.439148 331.265747,611.081299 327.224274,610.702637 
	C327.224274,623.172058 327.224274,634.875305 327.224274,646.759399 
	C331.170502,646.759399 334.890656,646.759399 338.988861,646.759399 
	C338.988861,635.266235 338.988861,624.010376 338.903412,611.796997 
M295.501373,659.000000 
	C290.086548,659.000000 284.671753,659.000000 279.315796,659.000000 
	C279.315796,663.324463 279.315796,667.045288 279.315796,671.000000 
	C285.420746,671.000000 291.211761,671.000000 297.002777,671.000000 
	C302.915985,671.000000 308.829224,671.000000 314.684753,671.000000 
	C314.684753,666.674927 314.684753,662.953857 314.684753,659.000000 
	C308.414490,659.000000 302.457581,659.000000 295.501373,659.000000 
M367.501373,659.000000 
	C362.086548,659.000000 356.671753,659.000000 351.315796,659.000000 
	C351.315796,663.324463 351.315796,667.045288 351.315796,671.000000 
	C357.420746,671.000000 363.211761,671.000000 369.002777,671.000000 
	C374.915985,671.000000 380.829224,671.000000 386.684753,671.000000 
	C386.684753,666.674927 386.684753,662.953857 386.684753,659.000000 
	C380.414490,659.000000 374.457581,659.000000 367.501373,659.000000 
M331.571777,719.000000 
	C333.985687,719.000000 336.399628,719.000000 339.000000,719.000000 
	C339.000000,712.521362 339.000000,706.721191 339.000000,700.921021 
	C339.000000,695.008850 339.000000,689.096741 339.000000,683.348633 
	C334.615265,683.348633 330.892853,683.348633 327.001038,683.348633 
	C327.001038,694.482788 327.112030,705.270996 326.931122,716.054199 
	C326.879120,719.153687 328.481171,719.168274 331.571777,719.000000 
M570.011536,597.272888 
	C573.814209,598.072693 577.616882,598.872437 581.755188,599.742859 
	C581.755188,594.801636 581.755188,591.087524 581.755188,587.249023 
	C577.792664,587.249023 574.078369,587.249023 570.001343,587.249023 
	C570.001343,590.433167 570.001343,593.379578 570.011536,597.272888 
M661.373596,562.999878 
	C663.490173,563.153687 665.321655,563.197021 665.052368,560.074829 
	C664.801880,557.170471 664.998901,554.227478 664.998901,551.276001 
	C660.735657,551.276001 657.020447,551.276001 653.280212,551.276001 
	C653.280212,555.273254 653.280212,558.988647 653.280212,563.000000 
	C655.846985,563.000000 658.136902,563.000000 661.373596,562.999878 
M564.430664,563.000061 
	C565.862366,562.921265 567.294067,562.842468 568.711670,562.764465 
	C568.711670,558.708618 568.711670,554.993835 568.711670,551.291626 
	C564.702271,551.291626 560.987183,551.291626 557.294922,551.291626 
	C557.294922,555.304260 557.294922,559.019165 557.294922,563.000000 
	C559.549377,563.000000 561.511292,563.000000 564.430664,563.000061 
M636.011536,527.272827 
	C639.814209,528.072632 643.616943,528.872437 647.755188,529.742798 
	C647.755188,524.801636 647.755188,521.087524 647.755188,517.249023 
	C643.792664,517.249023 640.078369,517.249023 636.001343,517.249023 
	C636.001343,520.433167 636.001343,523.379578 636.011536,527.272827 
M574.569336,516.999939 
	C573.137634,517.078735 571.705933,517.157532 570.288330,517.235535 
	C570.288330,521.291382 570.288330,525.006165 570.288330,528.708374 
	C574.297729,528.708374 578.012817,528.708374 581.705078,528.708374 
	C581.705078,524.695740 581.705078,520.980835 581.705078,517.000000 
	C579.450623,517.000000 577.488708,517.000000 574.569336,516.999939 
M610.526550,503.000000 
	C608.771362,503.000000 607.016235,503.000000 605.302490,503.000000 
	C605.302490,507.320190 605.302490,511.036163 605.302490,514.693237 
	C609.327026,514.693237 613.042847,514.693237 616.688721,514.693237 
	C616.688721,510.664886 616.688721,506.949554 616.688721,503.000000 
	C614.743774,503.000000 613.108521,503.000000 610.526550,503.000000 
M636.001343,596.329773 
	C636.795959,597.218384 637.520935,598.782837 638.397949,598.873352 
	C641.459839,599.189209 644.574280,598.995605 647.739258,598.995605 
	C647.739258,594.766724 647.739258,591.052673 647.739258,587.264160 
	C643.759583,587.264160 640.045349,587.264160 636.000061,587.264160 
	C636.000061,590.136475 636.000061,592.754944 636.001343,596.329773 
M608.629150,610.999939 
	C611.368469,610.999939 614.107849,610.999939 616.650513,610.999939 
	C616.650513,606.586487 616.650513,602.870911 616.650513,599.353149 
	C612.579590,599.353149 608.863953,599.353149 605.001099,599.353149 
	C605.001099,602.511108 604.759766,605.348572 605.123474,608.106262 
	C605.263000,609.164062 606.783020,610.039917 608.629150,610.999939 
M211.000137,128.373657 
	C210.846252,130.490280 210.803101,132.321671 213.925217,132.052368 
	C216.829559,131.801865 219.772522,131.998871 222.724030,131.998871 
	C222.724030,127.735886 222.724030,124.020691 222.724030,120.280212 
	C218.727081,120.280212 215.011780,120.280212 210.999985,120.280212 
	C210.999985,122.847000 210.999985,125.136932 211.000137,128.373657 
M171.371002,168.000122 
	C168.631653,168.000122 165.892288,168.000122 163.349442,168.000122 
	C163.349442,172.416702 163.349442,176.130768 163.349442,179.646912 
	C167.420288,179.646912 171.135956,179.646912 174.998871,179.646912 
	C174.998871,176.488968 175.240158,173.651535 174.876480,170.893875 
	C174.736969,169.835999 173.217072,168.960159 171.371002,168.000122 
M339.000000,664.526550 
	C339.000000,662.771423 339.000000,661.016235 339.000000,659.302490 
	C334.681122,659.302490 330.965454,659.302490 327.306763,659.302490 
	C327.306763,663.327087 327.306763,667.042908 327.306763,670.688721 
	C331.335114,670.688721 335.050476,670.688721 339.000000,670.688721 
	C339.000000,668.743774 339.000000,667.108521 339.000000,664.526550 
M268.326385,168.001373 
	C265.260132,168.001373 262.193909,168.001373 259.364319,168.001373 
	C259.364319,172.442749 259.364319,176.159103 259.364319,179.631149 
	C263.451172,179.631149 267.167603,179.631149 271.000000,179.631149 
	C271.000000,177.114731 271.218750,174.936874 270.929932,172.828552 
	C270.703857,171.178238 269.848785,169.614075 268.326385,168.001373 
M211.011612,217.723206 
	C211.011612,221.115585 211.011612,224.507980 211.011612,227.621460 
	C215.472443,227.621460 219.188950,227.621460 222.617004,227.621460 
	C222.617004,223.520798 222.617004,219.804840 222.617004,215.613220 
	C218.496918,216.028458 214.798096,216.401230 211.011612,217.723206 
z"/>
<path fill="#5AFD01" opacity="1.000000" stroke="none" 
	d="
M1.000000,434.000000 
	C1.000000,427.978851 1.000000,421.957703 1.454478,415.469788 
	C4.500344,415.002991 7.091731,415.002991 9.624961,415.002991 
	C9.912313,412.564636 10.118200,410.817535 10.306440,409.220184 
	C27.350416,409.220184 44.043793,409.220184 60.740685,409.220184 
	C60.897099,411.274445 61.020546,412.895721 61.161827,414.751221 
	C77.902481,414.751221 94.449417,414.751221 111.158752,414.751221 
	C111.423248,412.771088 111.658264,411.011597 111.909897,409.127747 
	C128.826248,409.127747 145.530350,409.127747 162.450211,409.127747 
	C162.652573,411.185486 162.823868,412.927307 163.027756,415.000580 
	C177.453415,415.000580 191.572891,415.000580 205.773682,415.462280 
	C205.854980,421.817383 205.854980,427.710815 205.854980,434.112244 
	C201.002197,434.112244 196.879745,434.112244 192.304077,434.094757 
	C182.125534,434.077271 172.400223,434.077271 162.825272,434.077271 
	C162.335327,431.543457 162.029785,429.963348 161.705551,428.286560 
	C145.061523,428.286560 128.690018,428.286560 112.256317,428.286560 
	C111.942368,430.240387 111.685509,431.838928 111.387222,433.695312 
	C94.618217,433.695312 78.076836,433.695312 61.181545,433.695312 
	C61.793434,427.919922 58.355537,427.767761 54.106308,427.839233 
	C41.800823,428.046234 29.489603,427.912567 17.180634,427.912537 
	C14.916873,427.912537 12.653112,427.912506 10.380323,427.912506 
	C10.061098,430.274323 9.844757,431.874969 9.557535,434.000000 
	C6.576785,434.000000 3.788392,434.000000 1.000000,434.000000 
z"/>
<path fill="#F1FD19" opacity="1.000000" stroke="none" 
	d="
M1.000000,434.468262 
	C3.788392,434.000000 6.576785,434.000000 9.557535,434.000000 
	C9.844757,431.874969 10.061098,430.274323 10.380323,427.912506 
	C12.653112,427.912506 14.916873,427.912537 17.180634,427.912537 
	C29.489603,427.912567 41.800823,428.046234 54.106308,427.839233 
	C58.355537,427.767761 61.793434,427.919922 61.181545,433.695312 
	C78.076836,433.695312 94.618217,433.695312 111.387222,433.695312 
	C111.685509,431.838928 111.942368,430.240387 112.256317,428.286560 
	C128.690018,428.286560 145.061523,428.286560 161.705551,428.286560 
	C162.029785,429.963348 162.335327,431.543457 162.825272,434.077271 
	C172.400223,434.077271 182.125534,434.077271 192.318970,434.547180 
	C192.853531,439.005676 192.919968,442.994293 192.520844,446.971283 
	C187.980820,446.959686 183.906342,446.959686 179.759781,446.959686 
	C179.649185,449.341644 179.565262,451.149353 179.045685,452.960236 
	C173.188202,452.963440 167.766403,452.963440 162.479019,452.963440 
	C162.067001,450.552887 161.794113,448.956360 161.425720,446.801025 
	C159.466431,446.801025 157.673706,446.801056 155.880997,446.801025 
	C143.561035,446.800964 131.239502,446.913818 118.921997,446.739929 
	C114.582481,446.678711 110.677292,446.519440 111.187469,452.703369 
	C94.447464,452.703369 78.051353,452.703369 61.290920,452.703369 
	C61.923012,446.912384 58.549107,446.649384 54.248764,446.725586 
	C42.099113,446.940857 29.943169,446.800293 17.789703,446.801056 
	C11.080816,446.801483 11.080816,446.802490 8.836441,453.000000 
	C6.303943,453.000000 3.651971,453.000000 1.000000,453.000000 
	C1.000000,446.978851 1.000000,440.957703 1.000000,434.468262 
z"/>
<path fill="#4DD7FC" opacity="1.000000" stroke="none" 
	d="
M205.692368,415.000580 
	C191.572891,415.000580 177.453415,415.000580 163.027756,415.000580 
	C162.823868,412.927307 162.652573,411.185486 162.450211,409.127747 
	C145.530350,409.127747 128.826248,409.127747 111.909897,409.127747 
	C111.658264,411.011597 111.423248,412.771088 111.158752,414.751221 
	C94.449417,414.751221 77.902481,414.751221 61.161827,414.751221 
	C61.020546,412.895721 60.897099,411.274445 60.740685,409.220184 
	C44.043793,409.220184 27.350416,409.220184 10.306440,409.220184 
	C10.118200,410.817535 9.912313,412.564636 9.624961,415.002991 
	C7.091731,415.002991 4.500344,415.002991 1.454478,415.001495 
	C1.000000,408.978851 1.000000,402.957703 1.452693,396.467346 
	C4.488285,395.998108 7.071184,395.998108 9.518627,395.998108 
	C9.904979,393.560242 10.157478,391.966980 10.426985,390.266418 
	C27.237364,390.266418 43.769840,390.266418 60.320160,390.266418 
	C60.764809,392.315277 61.135540,394.023590 61.467285,395.552216 
	C78.367226,395.552216 94.893829,395.552216 111.355911,395.552216 
	C111.730682,393.528107 112.023773,391.945160 112.416985,389.821472 
	C126.050499,389.821472 139.490356,389.821472 153.087616,390.233398 
	C153.003296,393.232819 153.814133,394.734222 156.780411,394.387543 
	C158.400452,394.198212 160.056595,394.317780 161.939697,394.591553 
	C163.964233,395.070892 165.742462,395.296387 167.527451,395.434662 
	C171.593002,395.749512 175.661880,396.021576 179.702530,396.753052 
	C179.675659,400.491058 179.675659,403.787018 179.675659,407.567871 
	C188.366364,407.567871 196.625320,407.567871 205.097656,407.757690 
	C205.490662,408.010681 205.670258,408.073853 205.869476,408.565674 
	C205.823532,410.996399 205.757950,412.998505 205.692368,415.000580 
z"/>
<path fill="#FD7E00" opacity="1.000000" stroke="none" 
	d="
M1.000000,453.468262 
	C3.651971,453.000000 6.303943,453.000000 8.836441,453.000000 
	C11.080816,446.802490 11.080816,446.801483 17.789703,446.801056 
	C29.943169,446.800293 42.099113,446.940857 54.248764,446.725586 
	C58.549107,446.649384 61.923012,446.912384 61.290920,452.703369 
	C78.051353,452.703369 94.447464,452.703369 111.187469,452.703369 
	C110.677292,446.519440 114.582481,446.678711 118.921997,446.739929 
	C131.239502,446.913818 143.561035,446.800964 155.880997,446.801025 
	C157.673706,446.801056 159.466431,446.801025 161.425720,446.801025 
	C161.794113,448.956360 162.067001,450.552887 162.479019,452.963440 
	C167.766403,452.963440 173.188202,452.963440 179.117310,453.393066 
	C179.724014,455.855011 179.823410,457.887329 179.464203,459.954681 
	C174.951950,459.989685 170.898315,459.989685 166.084351,459.989685 
	C166.084351,464.483612 166.084351,468.232758 165.671829,471.972504 
	C164.453857,471.141693 162.971161,470.327820 162.961838,469.497437 
	C162.924332,466.157166 161.033173,465.830475 158.383728,465.842468 
	C144.249237,465.906586 130.114243,465.894287 115.979568,465.855499 
	C113.561974,465.848877 111.975754,466.202454 111.542198,469.210114 
	C111.383453,470.311340 108.928490,471.860138 107.502800,471.879730 
	C93.204468,472.076416 78.902298,472.009399 64.601334,471.970490 
	C63.502396,471.967499 62.404411,471.614319 61.113831,471.390625 
	C61.770187,466.520966 59.311768,465.706970 55.233589,465.786804 
	C43.265182,466.021118 31.289236,465.870209 19.316240,465.870148 
	C16.384668,465.870148 13.453095,465.870117 10.636527,465.870117 
	C10.070673,468.341217 9.679668,470.048737 9.232851,472.000000 
	C6.299006,472.000000 3.649503,472.000000 1.000000,472.000000 
	C1.000000,465.978851 1.000000,459.957703 1.000000,453.468262 
z"/>
<path fill="#FD0000" opacity="1.000000" stroke="none" 
	d="
M1.000000,472.468262 
	C3.649503,472.000000 6.299006,472.000000 9.232851,472.000000 
	C9.679668,470.048737 10.070673,468.341217 10.636527,465.870117 
	C13.453095,465.870117 16.384668,465.870148 19.316240,465.870148 
	C31.289236,465.870209 43.265182,466.021118 55.233589,465.786804 
	C59.311768,465.706970 61.770187,466.520966 61.113831,471.390625 
	C62.404411,471.614319 63.502396,471.967499 64.601334,471.970490 
	C78.902298,472.009399 93.204468,472.076416 107.502800,471.879730 
	C108.928490,471.860138 111.383453,470.311340 111.542198,469.210114 
	C111.975754,466.202454 113.561974,465.848877 115.979568,465.855499 
	C130.114243,465.894287 144.249237,465.906586 158.383728,465.842468 
	C161.033173,465.830475 162.924332,466.157166 162.961838,469.497437 
	C162.971161,470.327820 164.453857,471.141693 165.787842,472.430939 
	C166.340408,477.668671 166.527130,482.446869 166.284683,487.203217 
	C166.216171,488.547363 164.892609,489.827606 164.144653,491.137146 
	C163.608109,489.683960 163.071564,488.230804 162.535019,486.777618 
	C161.489960,486.157806 160.448822,485.005768 159.399231,484.998016 
	C143.792435,484.882355 128.184525,484.918182 112.261330,484.918182 
	C111.932159,486.929596 111.649857,488.654694 111.309975,490.731567 
	C94.724983,490.731567 78.195885,490.731567 61.309807,490.731567 
	C61.064709,489.040955 60.813728,487.309753 60.513447,485.238464 
	C43.904816,485.238464 27.358206,485.238464 10.455125,485.238464 
	C10.200595,486.864136 9.929607,488.594940 9.540785,491.078339 
	C7.077092,491.078339 4.492204,491.078339 1.453658,491.039185 
	C1.000000,484.978851 1.000000,478.957703 1.000000,472.468262 
z"/>
<path fill="#3B3EFD" opacity="1.000000" stroke="none" 
	d="
M152.930222,389.821472 
	C139.490356,389.821472 126.050499,389.821472 112.416985,389.821472 
	C112.023773,391.945160 111.730682,393.528107 111.355911,395.552216 
	C94.893829,395.552216 78.367226,395.552216 61.467285,395.552216 
	C61.135540,394.023590 60.764809,392.315277 60.320160,390.266418 
	C43.769840,390.266418 27.237364,390.266418 10.426985,390.266418 
	C10.157478,391.966980 9.904979,393.560242 9.518627,395.998108 
	C7.071184,395.998108 4.488285,395.998108 1.452693,395.999054 
	C1.000000,389.978851 1.000000,383.957703 1.000000,377.468262 
	C3.797430,377.000000 6.594861,377.000000 9.617295,377.000000 
	C9.888152,374.998871 10.104888,373.397614 10.377242,371.385437 
	C26.861042,371.385437 43.404423,371.385437 60.248165,371.385437 
	C60.593323,373.014221 60.957928,374.734741 61.376911,376.711914 
	C77.999275,376.711914 94.563965,376.711914 111.389664,376.711914 
	C111.679260,374.969452 111.944267,373.374969 112.342422,370.979309 
	C121.124626,370.979309 130.039886,370.979309 139.499451,371.443115 
	C140.043732,374.948273 140.043732,377.989655 140.043732,381.055145 
	C144.833450,381.055145 148.890793,381.055145 153.023163,381.492065 
	C153.042191,384.559784 152.986206,387.190643 152.930222,389.821472 
z"/>
<path fill="#353554" opacity="1.000000" stroke="none" 
	d="
M584.956543,352.939911 
	C584.959961,360.369171 584.963318,367.798431 584.647827,375.492310 
	C581.778748,372.875000 579.246582,373.117889 576.654358,375.734924 
	C572.785278,379.641022 568.867859,383.499268 564.987793,387.394592 
	C552.918945,399.510895 540.858154,411.635162 528.577576,423.973969 
	C528.433105,423.141144 528.234680,422.756226 528.350708,422.540100 
	C528.977417,421.372589 529.682678,420.247345 530.359558,419.106781 
	C537.568237,406.960083 542.359131,393.957245 543.839905,379.870453 
	C544.036560,377.999786 542.933655,375.992523 542.432556,374.048523 
	C540.599731,374.871643 538.356262,375.271271 537.000549,376.586243 
	C527.912659,385.401001 519.018066,394.414856 510.045807,403.349152 
	C509.265472,404.126221 508.377075,404.794739 508.625488,404.581696 
	C510.985443,396.456665 513.680237,387.475891 516.125366,378.427704 
	C516.476013,377.130005 515.622009,375.506775 515.325500,374.034210 
	C513.927551,374.685120 512.208618,375.012848 511.179230,376.034912 
	C492.501190,394.580139 473.889893,413.192810 455.335693,431.861938 
	C454.276520,432.927673 453.828827,434.601105 453.096558,435.991699 
	C454.732086,436.334961 456.560181,437.330658 457.971527,436.914215 
	C466.354218,434.440704 474.640411,431.640320 483.110291,429.133545 
	C483.261536,429.317291 483.584076,429.667450 483.388885,429.929810 
	C473.442627,439.955383 463.646729,449.674744 453.995819,459.536011 
	C452.754425,460.804474 452.265106,462.809021 451.427368,464.472565 
	C453.300507,465.052826 455.219391,466.249695 457.039429,466.114594 
	C470.141876,465.141968 482.203247,460.693054 493.709625,454.555481 
	C494.918640,453.910583 496.174866,453.354187 497.409210,452.756744 
	C497.683990,453.113159 497.958740,453.469604 498.233490,453.826019 
	C497.092285,455.072998 495.996033,456.364838 494.802948,457.560028 
	C481.175537,471.211639 467.596375,484.912537 453.845428,498.438751 
	C450.878448,501.357239 450.430725,503.883698 453.221008,506.941620 
	C446.738403,506.945557 440.255829,506.949524 433.460571,506.624512 
	C436.525635,502.820099 434.125305,500.362427 431.675903,497.906067 
	C416.100555,482.287048 400.527222,466.666046 384.933899,451.057983 
	C384.914520,451.070282 384.876251,451.098297 385.239502,450.992859 
	C386.634949,451.397522 387.702545,451.847168 388.694092,452.426849 
	C401.325348,459.811310 414.699188,465.027832 429.422455,466.121368 
	C430.989441,466.237701 432.633759,465.312561 434.242188,464.870544 
	C433.635162,463.188049 433.434326,461.154114 432.341949,459.891541 
	C429.514893,456.624023 426.295593,453.695740 423.231506,450.633423 
	C416.566589,443.972443 409.900787,437.312378 403.235321,430.651947 
	C405.468658,430.334961 407.100739,430.992584 408.783813,431.470642 
	C415.456451,433.365875 422.122864,435.293030 428.848297,436.982666 
	C430.042053,437.282562 431.505737,436.507935 432.844788,436.229492 
	C432.357147,434.928497 432.222443,433.277130 431.329926,432.378082 
	C412.548645,413.459320 393.697021,394.610229 374.786682,375.820435 
	C373.851105,374.890778 372.258514,374.622375 370.971863,374.046051 
	C370.621185,375.499146 369.675720,377.111298 370.014984,378.379883 
	C372.468994,387.555847 375.182648,396.662354 378.074982,406.695862 
	C375.961914,404.145813 374.223541,401.713074 372.152283,399.607880 
	C364.323425,391.650726 356.443024,383.741669 348.425751,375.975739 
	C347.299774,374.885040 345.306488,374.689697 343.714661,374.079895 
	C343.151978,375.674103 342.452637,377.237183 342.079742,378.874603 
	C341.868530,379.802032 342.125183,380.862549 342.286255,381.844208 
	C344.322205,394.250916 348.134460,406.045715 354.377380,417.012329 
	C355.131592,418.337158 355.625244,419.810303 356.239655,421.214722 
	C340.285767,406.459351 325.056610,391.321777 309.925171,376.087158 
	C306.816345,372.957123 304.105377,372.493805 301.180237,375.726440 
	C301.192200,367.327393 301.292969,359.409882 301.494354,351.840057 
	C303.650055,356.785248 305.489838,356.995117 309.492035,352.999939 
	C321.993500,340.520172 334.460968,328.006378 346.979828,315.544128 
	C349.605408,312.930450 352.394073,310.480591 355.330109,307.748138 
	C355.660675,308.754700 355.927094,309.131287 355.832031,309.352661 
	C355.447021,310.249359 354.971558,311.109924 354.492493,311.963074 
	C348.087311,323.370178 344.115631,335.622406 342.196869,348.511566 
	C341.896851,350.526733 343.043945,352.757294 343.521881,354.888275 
	C345.483246,353.999878 347.871887,353.555786 349.334869,352.149048 
	C357.261322,344.527496 364.950073,336.659027 372.745514,328.900543 
	C373.810211,327.840942 375.013580,326.920685 376.152740,325.935913 
	C376.646332,328.021545 376.099274,329.324707 375.675018,330.666718 
	C373.779724,336.661835 371.735413,342.620209 370.156799,348.698853 
	C369.671600,350.566925 370.494598,352.774780 370.718567,354.827026 
	C372.465881,353.840851 374.537567,353.181763 375.911469,351.819092 
	C394.013855,333.864197 412.021362,315.813568 430.038513,297.772797 
	C431.169678,296.640137 432.183990,295.390747 433.268463,294.178009 
	C428.497375,290.386505 422.203644,291.854706 400.329468,300.798615 
	C401.429352,299.170166 403.243134,298.255707 404.627197,296.901917 
	C413.917786,287.814667 423.174896,278.690826 432.275146,269.414337 
	C433.460846,268.205688 433.686798,266.055573 434.357330,264.341522 
	C432.595490,263.854767 430.734497,262.728088 429.087616,262.983276 
	C416.792358,264.888306 404.780548,267.775269 393.879181,274.175446 
	C391.681152,275.465912 389.178894,276.238159 386.816895,277.249329 
	C386.324524,276.643036 385.832184,276.036743 385.339813,275.430420 
	C387.613129,273.742798 390.120209,272.293335 392.121887,270.328949 
	C405.428589,257.269867 418.605347,244.078568 431.877167,230.983734 
	C434.947174,227.954651 436.254974,225.085342 432.077942,221.990280 
	C438.851013,222.021484 445.624115,222.052689 452.682739,222.410492 
	C449.750275,226.156235 451.807434,228.631531 454.355225,231.169434 
	C468.592865,245.351990 482.805115,259.560181 496.969879,273.815430 
	C498.171875,275.025024 498.961639,276.644257 499.959106,278.050781 
	C499.975342,278.028320 500.007446,277.983215 499.665039,277.915619 
	C486.428802,269.858093 472.564850,264.557953 457.407257,263.034943 
	C455.649902,262.858398 453.786804,263.734314 451.972717,264.122314 
	C452.758972,266.125122 453.035461,268.620056 454.415527,270.049561 
	C462.392944,278.312988 470.639618,286.316162 478.770630,294.431946 
	C479.941528,295.600647 480.980011,296.901947 482.079773,298.141907 
	C481.817627,298.510559 481.555481,298.879211 481.293335,299.247833 
	C472.275879,295.681549 463.420837,291.386688 452.377747,292.017639 
	C453.373260,294.059418 453.729767,295.694031 454.723938,296.695831 
	C473.489288,315.604523 492.309998,334.458618 511.211975,353.230591 
	C512.195251,354.207153 514.005310,354.351227 515.430420,354.882874 
	C515.698914,353.515961 516.466553,352.021545 516.155273,350.802643 
	C514.048889,342.555267 511.714325,334.366150 509.380798,325.893860 
	C510.479492,326.769073 511.891663,327.700226 513.072449,328.865753 
	C521.247803,336.935394 529.326233,345.104156 537.573914,353.098511 
	C538.717590,354.207001 540.620667,354.532043 542.172180,355.219788 
	C542.780029,353.503906 543.940735,351.767548 543.878052,350.076477 
	C543.756042,346.782532 543.394348,343.363159 542.344604,340.262238 
	C538.674805,329.421295 534.669495,318.693939 530.925537,308.295410 
	C531.662231,308.912720 533.190063,310.012115 534.506348,311.323761 
	C548.306519,325.075012 562.139771,338.794373 575.799500,352.684204 
	C579.048401,355.987793 581.797668,356.521545 584.956543,352.939911 
z"/>
<path fill="#3FB2D1" opacity="1.000000" stroke="none" 
	d="
M499.942902,278.073212 
	C498.961639,276.644257 498.171875,275.025024 496.969879,273.815430 
	C482.805115,259.560181 468.592865,245.351990 454.355225,231.169434 
	C451.807434,228.631531 449.750275,226.156235 453.173828,222.447556 
	C469.607452,222.209793 484.899994,226.589340 499.524658,233.068085 
	C537.132812,249.728577 563.344055,277.492523 577.117676,316.225647 
	C581.181274,327.652863 582.416870,340.085754 584.952515,352.498840 
	C581.797668,356.521545 579.048401,355.987793 575.799500,352.684204 
	C562.139771,338.794373 548.306519,325.075012 534.506348,311.323761 
	C533.190063,310.012115 531.662231,308.912720 530.925537,308.295410 
	C534.669495,318.693939 538.674805,329.421295 542.344604,340.262238 
	C543.394348,343.363159 543.756042,346.782532 543.878052,350.076477 
	C543.940735,351.767548 542.780029,353.503906 542.172180,355.219788 
	C540.620667,354.532043 538.717590,354.207001 537.573914,353.098511 
	C529.326233,345.104156 521.247803,336.935394 513.072449,328.865753 
	C511.891663,327.700226 510.479492,326.769073 509.380798,325.893860 
	C511.714325,334.366150 514.048889,342.555267 516.155273,350.802643 
	C516.466553,352.021545 515.698914,353.515961 515.430420,354.882874 
	C514.005310,354.351227 512.195251,354.207153 511.211975,353.230591 
	C492.309998,334.458618 473.489288,315.604523 454.723938,296.695831 
	C453.729767,295.694031 453.373260,294.059418 452.377747,292.017639 
	C463.420837,291.386688 472.275879,295.681549 481.293335,299.247833 
	C481.555481,298.879211 481.817627,298.510559 482.079773,298.141907 
	C480.980011,296.901947 479.941528,295.600647 478.770630,294.431946 
	C470.639618,286.316162 462.392944,278.312988 454.415527,270.049561 
	C453.035461,268.620056 452.758972,266.125122 451.972717,264.122314 
	C453.786804,263.734314 455.649902,262.858398 457.407257,263.034943 
	C472.564850,264.557953 486.428802,269.858093 499.757996,278.119843 
	C500.493958,278.349701 500.794525,278.307770 501.095123,278.265808 
	C500.711060,278.201599 500.326965,278.137390 499.942902,278.073212 
z"/>
<path fill="#4CCBCC" opacity="1.000000" stroke="none" 
	d="
M384.953217,451.045654 
	C400.527222,466.666046 416.100555,482.287048 431.675903,497.906067 
	C434.125305,500.362427 436.525635,502.820099 432.980835,506.602600 
	C419.914856,507.324341 407.829987,503.458862 395.064758,499.639801 
	C383.992432,494.206543 373.551483,488.984131 363.110565,483.761719 
	C359.005310,480.523743 354.900055,477.285767 350.321533,473.665802 
	C345.435699,468.847961 341.023163,464.412109 336.498779,459.685760 
	C332.937897,455.222778 329.488861,451.050262 325.953003,446.545135 
	C320.921906,437.162415 315.977631,428.112305 310.964844,418.684875 
	C309.522614,414.616913 308.148895,410.926300 306.800659,406.835999 
	C304.973785,396.360199 303.121368,386.284119 301.268982,376.208008 
	C304.105377,372.493805 306.816345,372.957123 309.925171,376.087158 
	C325.056610,391.321777 340.285767,406.459351 356.239655,421.214722 
	C355.625244,419.810303 355.131592,418.337158 354.377380,417.012329 
	C348.134460,406.045715 344.322205,394.250916 342.286255,381.844208 
	C342.125183,380.862549 341.868530,379.802032 342.079742,378.874603 
	C342.452637,377.237183 343.151978,375.674103 343.714661,374.079895 
	C345.306488,374.689697 347.299774,374.885040 348.425751,375.975739 
	C356.443024,383.741669 364.323425,391.650726 372.152283,399.607880 
	C374.223541,401.713074 375.961914,404.145813 378.074982,406.695862 
	C375.182648,396.662354 372.468994,387.555847 370.014984,378.379883 
	C369.675720,377.111298 370.621185,375.499146 370.971863,374.046051 
	C372.258514,374.622375 373.851105,374.890778 374.786682,375.820435 
	C393.697021,394.610229 412.548645,413.459320 431.329926,432.378082 
	C432.222443,433.277130 432.357147,434.928497 432.844788,436.229492 
	C431.505737,436.507935 430.042053,437.282562 428.848297,436.982666 
	C422.122864,435.293030 415.456451,433.365875 408.783813,431.470642 
	C407.100739,430.992584 405.468658,430.334961 403.235321,430.651947 
	C409.900787,437.312378 416.566589,443.972443 423.231506,450.633423 
	C426.295593,453.695740 429.514893,456.624023 432.341949,459.891541 
	C433.434326,461.154114 433.635162,463.188049 434.242188,464.870544 
	C432.633759,465.312561 430.989441,466.237701 429.422455,466.121368 
	C414.699188,465.027832 401.325348,459.811310 388.694092,452.426849 
	C387.702545,451.847168 386.634949,451.397522 385.347900,450.792572 
	C384.843964,450.382599 384.594818,450.067535 384.345642,449.752441 
	C384.280640,449.849213 384.138611,450.000946 384.162476,450.034363 
	C384.410736,450.382416 384.685669,450.711426 384.953217,451.045654 
z"/>
<path fill="#E6EA19" opacity="1.000000" stroke="none" 
	d="
M482.959045,428.949768 
	C474.640411,431.640320 466.354218,434.440704 457.971527,436.914215 
	C456.560181,437.330658 454.732086,436.334961 453.096558,435.991699 
	C453.828827,434.601105 454.276520,432.927673 455.335693,431.861938 
	C473.889893,413.192810 492.501190,394.580139 511.179230,376.034912 
	C512.208618,375.012848 513.927551,374.685120 515.325500,374.034210 
	C515.622009,375.506775 516.476013,377.130005 516.125366,378.427704 
	C513.680237,387.475891 510.985443,396.456665 508.625488,404.581696 
	C508.377075,404.794739 509.265472,404.126221 510.045807,403.349152 
	C519.018066,394.414856 527.912659,385.401001 537.000549,376.586243 
	C538.356262,375.271271 540.599731,374.871643 542.432556,374.048523 
	C542.933655,375.992523 544.036560,377.999786 543.839905,379.870453 
	C542.359131,393.957245 537.568237,406.960083 530.359558,419.106781 
	C529.682678,420.247345 528.977417,421.372589 528.350708,422.540100 
	C528.234680,422.756226 528.433105,423.141144 528.577576,423.973969 
	C540.858154,411.635162 552.918945,399.510895 564.987793,387.394592 
	C568.867859,383.499268 572.785278,379.641022 576.654358,375.734924 
	C579.246582,373.117889 581.778748,372.875000 584.638733,375.972687 
	C582.842712,405.961639 572.196716,432.424622 553.313538,455.396545 
	C529.237244,484.686218 498.082275,501.600433 460.567108,506.824432 
	C458.441010,507.120514 456.250824,506.956024 453.655731,506.973755 
	C450.430725,503.883698 450.878448,501.357239 453.845428,498.438751 
	C467.596375,484.912537 481.175537,471.211639 494.802948,457.560028 
	C495.996033,456.364838 497.092285,455.072998 498.233490,453.826019 
	C497.958740,453.469604 497.683990,453.113159 497.409210,452.756744 
	C496.174866,453.354187 494.918640,453.910583 493.709625,454.555481 
	C482.203247,460.693054 470.141876,465.141968 457.039429,466.114594 
	C455.219391,466.249695 453.300507,465.052826 451.427368,464.472565 
	C452.265106,462.809021 452.754425,460.804474 453.995819,459.536011 
	C463.646729,449.674744 473.442627,439.955383 483.606537,429.761963 
	C484.164429,428.977844 484.309479,428.623871 484.454498,428.269897 
	C483.955994,428.496521 483.457520,428.723145 482.959045,428.949768 
z"/>
<path fill="#DA5409" opacity="1.000000" stroke="none" 
	d="
M431.636139,221.993393 
	C436.254974,225.085342 434.947174,227.954651 431.877167,230.983734 
	C418.605347,244.078568 405.428589,257.269867 392.121887,270.328949 
	C390.120209,272.293335 387.613129,273.742798 385.339813,275.430420 
	C385.832184,276.036743 386.324524,276.643036 386.816895,277.249329 
	C389.178894,276.238159 391.681152,275.465912 393.879181,274.175446 
	C404.780548,267.775269 416.792358,264.888306 429.087616,262.983276 
	C430.734497,262.728088 432.595490,263.854767 434.357330,264.341522 
	C433.686798,266.055573 433.460846,268.205688 432.275146,269.414337 
	C423.174896,278.690826 413.917786,287.814667 404.627197,296.901917 
	C403.243134,298.255707 401.429352,299.170166 400.329468,300.798615 
	C422.203644,291.854706 428.497375,290.386505 433.268463,294.178009 
	C432.183990,295.390747 431.169678,296.640137 430.038513,297.772797 
	C412.021362,315.813568 394.013855,333.864197 375.911469,351.819092 
	C374.537567,353.181763 372.465881,353.840851 370.718567,354.827026 
	C370.494598,352.774780 369.671600,350.566925 370.156799,348.698853 
	C371.735413,342.620209 373.779724,336.661835 375.675018,330.666718 
	C376.099274,329.324707 376.646332,328.021545 376.152740,325.935913 
	C375.013580,326.920685 373.810211,327.840942 372.745514,328.900543 
	C364.950073,336.659027 357.261322,344.527496 349.334869,352.149048 
	C347.871887,353.555786 345.483246,353.999878 343.521881,354.888275 
	C343.043945,352.757294 341.896851,350.526733 342.196869,348.511566 
	C344.115631,335.622406 348.087311,323.370178 354.492493,311.963074 
	C354.971558,311.109924 355.447021,310.249359 355.832031,309.352661 
	C355.927094,309.131287 355.660675,308.754700 355.330109,307.748138 
	C352.394073,310.480591 349.605408,312.930450 346.979828,315.544128 
	C334.460968,328.006378 321.993500,340.520172 309.492035,352.999939 
	C305.489838,356.995117 303.650055,356.785248 301.624023,351.361511 
	C303.333252,331.331726 308.887177,313.330170 318.014038,296.342621 
	C324.488647,284.291656 332.625427,273.544861 342.369781,263.593933 
	C347.429810,258.999176 352.226746,254.565201 357.312866,249.951233 
	C364.217102,245.506119 370.832123,241.240982 377.447144,236.975861 
	C391.255219,232.455444 405.011536,227.765411 418.904694,223.523590 
	C422.794067,222.336105 427.086700,222.469193 431.636139,221.993393 
z"/>
<path fill="#020202" opacity="1.000000" stroke="none" 
	d="
M336.610657,459.976227 
	C341.023163,464.412109 345.435699,468.847961 349.993530,473.580017 
	C329.885162,473.834259 309.631500,473.806946 289.377991,473.732208 
	C286.788483,473.722656 285.032379,474.011963 284.833618,477.377777 
	C284.278198,486.784088 284.132263,486.774750 274.850037,486.830994 
	C274.186127,486.835022 273.522339,486.861023 272.244934,486.486450 
	C271.631348,481.994324 271.631348,477.892578 271.631348,473.696503 
	C262.430756,473.696503 253.930527,473.696503 245.433777,473.696503 
	C245.433777,478.072845 245.433777,481.982971 245.433777,486.926544 
	C254.490067,486.926544 263.236359,486.926544 271.982666,486.926544 
	C271.705414,491.017944 272.938934,496.906403 270.761230,498.737152 
	C268.150879,500.931641 262.632141,499.799225 258.369141,499.865356 
	C251.228790,499.976074 244.076309,499.677856 236.946945,499.978699 
	C232.877167,500.150391 231.795242,498.625488 231.940125,494.803406 
	C232.191589,488.169281 232.005936,481.518524 231.665833,474.167908 
	C227.237518,473.332031 223.146957,473.202942 219.044739,473.066223 
	C219.033066,473.058624 219.032486,473.030731 219.006302,472.564240 
	C218.980118,468.203705 218.980118,464.309662 218.980118,459.998718 
	C214.253799,459.998718 210.338470,459.998718 205.858078,459.998718 
	C205.858078,455.537781 205.858078,451.487183 205.858078,446.958099 
	C201.177841,446.958099 197.071198,446.958099 192.970093,446.964661 
	C192.975632,446.971222 192.986420,446.982880 192.986420,446.982880 
	C192.919968,442.994293 192.853531,439.005676 192.772202,434.564667 
	C196.879745,434.112244 201.002197,434.112244 205.854980,434.112244 
	C205.854980,427.710815 205.854980,421.817383 205.773682,415.462280 
	C205.757950,412.998505 205.823532,410.996399 205.889450,408.093109 
	C205.818436,402.747681 205.747070,398.303436 205.723190,393.399719 
	C205.770676,384.861206 205.770676,376.782135 205.770676,368.193481 
	C192.500427,368.193481 179.797928,368.193481 166.228394,368.193481 
	C166.228394,359.102631 166.228394,350.522247 166.246429,341.948395 
	C166.264450,341.954895 166.278427,341.983856 166.278427,341.983856 
	C167.109848,341.986481 167.941849,341.969788 168.772568,341.995117 
	C172.085648,342.096130 176.367645,341.015045 178.419403,342.679138 
	C180.218903,344.138641 179.245621,348.754028 180.050781,351.830536 
	C180.377060,353.077179 182.129883,354.778870 183.304031,354.836426 
	C189.441772,355.137299 195.604126,354.881134 201.753906,355.010376 
	C205.753235,355.094421 205.243576,352.365356 205.245178,349.910004 
	C205.258560,329.456879 205.252899,309.003754 205.253983,288.550629 
	C205.254379,281.400360 205.297195,274.249725 205.237793,267.099976 
	C205.217133,264.612274 205.696304,263.156311 208.744629,262.980347 
	C218.078781,262.441467 218.066589,262.309723 218.334885,253.019119 
	C218.353867,252.362411 218.512070,251.709732 218.806702,251.169662 
	C219.020828,255.228271 219.033768,259.172394 219.030960,263.577576 
	C219.015198,324.949921 219.015198,385.861176 219.015198,447.190308 
	C223.686478,447.190308 227.773544,447.190308 232.268250,447.190308 
	C232.268250,451.691223 232.268250,455.775909 232.268250,459.976227 
	C267.336517,459.976227 301.973572,459.976227 336.610657,459.976227 
z"/>
<path fill="#000000" opacity="1.000000" stroke="none" 
	d="
M376.942749,236.946686 
	C370.832123,241.240982 364.217102,245.506119 356.843140,249.894226 
	C314.737701,250.026047 273.391235,250.034866 232.039749,250.038757 
	C232.034729,250.033844 232.028915,250.028198 232.028915,250.028198 
	C231.983856,236.784760 231.983871,236.774643 245.293045,236.786621 
	C289.008148,236.825943 332.723236,236.873276 376.942749,236.946686 
z"/>
<path fill="#090605" opacity="1.000000" stroke="none" 
	d="
M162.524780,487.003296 
	C163.071564,488.230804 163.608109,489.683960 164.144653,491.137146 
	C164.892609,489.827606 166.216171,488.547363 166.284683,487.203217 
	C166.527130,482.446869 166.340408,477.668671 166.200363,472.440308 
	C166.084351,468.232758 166.084351,464.483612 166.084351,459.989685 
	C170.898315,459.989685 174.951950,459.989685 179.482880,459.963013 
	C179.960175,459.936371 179.984848,459.968781 179.906311,460.434265 
	C179.827774,469.268555 179.827774,477.637390 179.827774,486.005402 
	C189.128845,486.005402 197.573669,486.005402 206.473938,485.998169 
	C210.899902,485.669891 214.870407,485.348846 218.840912,485.027802 
	C216.344299,485.639679 213.832306,486.806305 211.354538,486.737671 
	C207.308395,486.625641 205.372375,487.807617 205.951614,492.074738 
	C206.129196,493.382904 205.888885,494.742706 205.991104,496.067200 
	C206.201782,498.796600 205.129578,499.978973 202.278305,499.954895 
	C191.452057,499.863403 180.624405,499.944946 169.797806,499.878662 
	C168.717911,499.872009 166.944611,499.588562 166.677917,498.943634 
	C165.096268,495.118927 163.864166,491.149628 162.524780,487.003296 
z"/>
<path fill="#FFFFFF" opacity="1.000000" stroke="none" 
	d="
M338.946136,612.275757 
	C338.988861,624.010376 338.988861,635.266235 338.988861,646.759399 
	C334.890656,646.759399 331.170502,646.759399 327.224274,646.759399 
	C327.224274,634.875305 327.224274,623.172058 327.224274,610.702637 
	C331.265747,611.081299 335.084564,611.439148 338.946136,612.275757 
z"/>
<path fill="#FFFFFF" opacity="1.000000" stroke="none" 
	d="
M296.001038,659.000000 
	C302.457581,659.000000 308.414490,659.000000 314.684753,659.000000 
	C314.684753,662.953857 314.684753,666.674927 314.684753,671.000000 
	C308.829224,671.000000 302.915985,671.000000 297.002777,671.000000 
	C291.211761,671.000000 285.420746,671.000000 279.315796,671.000000 
	C279.315796,667.045288 279.315796,663.324463 279.315796,659.000000 
	C284.671753,659.000000 290.086548,659.000000 296.001038,659.000000 
z"/>
<path fill="#FFFFFF" opacity="1.000000" stroke="none" 
	d="
M368.001038,659.000000 
	C374.457581,659.000000 380.414490,659.000000 386.684753,659.000000 
	C386.684753,662.953857 386.684753,666.674927 386.684753,671.000000 
	C380.829224,671.000000 374.915985,671.000000 369.002777,671.000000 
	C363.211761,671.000000 357.420746,671.000000 351.315796,671.000000 
	C351.315796,667.045288 351.315796,663.324463 351.315796,659.000000 
	C356.671753,659.000000 362.086548,659.000000 368.001038,659.000000 
z"/>
<path fill="#FFFFFF" opacity="1.000000" stroke="none" 
	d="
M331.097534,719.000000 
	C328.481171,719.168274 326.879120,719.153687 326.931122,716.054199 
	C327.112030,705.270996 327.001038,694.482788 327.001038,683.348633 
	C330.892853,683.348633 334.615265,683.348633 339.000000,683.348633 
	C339.000000,689.096741 339.000000,695.008850 339.000000,700.921021 
	C339.000000,706.721191 339.000000,712.521362 339.000000,719.000000 
	C336.399628,719.000000 333.985687,719.000000 331.097534,719.000000 
z"/>
<path fill="#060505" opacity="1.000000" stroke="none" 
	d="
M166.484253,341.559265 
	C166.278427,341.983856 166.264450,341.954895 165.760452,341.976746 
	C156.828781,341.991669 148.401108,341.984772 139.992462,341.978912 
	C140.011475,341.979950 140.030045,342.012634 140.030045,342.012634 
	C140.018494,328.219147 140.018494,328.219147 153.777222,328.219147 
	C154.110229,328.219147 154.443237,328.219147 154.776245,328.219147 
	C167.502563,328.219147 167.502563,328.219147 166.484253,341.559265 
z"/>
<path fill="#000000" opacity="1.000000" stroke="none" 
	d="
M127.972771,342.145386 
	C131.682800,342.098907 135.392822,342.052429 139.566437,342.009277 
	C140.030045,342.012634 140.011475,341.979950 140.040649,342.447510 
	C140.057266,351.273529 140.044693,359.631958 139.569733,367.984863 
	C135.411423,367.956085 131.715485,367.932892 127.897217,367.743591 
	C127.597366,367.364471 127.393066,367.181396 127.162018,367.028198 
	C127.131439,359.320435 127.100868,351.612640 127.271194,343.321533 
	C127.670280,342.567017 127.837173,342.369415 127.972771,342.145386 
z"/>
<path fill="#FFFFFF" opacity="1.000000" stroke="none" 
	d="
M514.071960,61.064548 
	C514.071960,53.178997 514.071960,45.293446 514.071960,37.223747 
	C518.163574,37.223747 521.870422,37.223747 525.991516,37.223747 
	C525.991516,45.000225 525.991516,52.560638 525.994568,60.560219 
	C525.997620,60.999393 526.066467,60.933529 525.601379,60.962791 
	C521.402039,60.972549 517.667786,60.953037 513.968018,60.966454 
	C514.002441,60.999382 514.071960,61.064548 514.071960,61.064548 
z"/>
<path fill="#FFFFFF" opacity="1.000000" stroke="none" 
	d="
M514.064636,72.927986 
	C506.178406,72.927986 498.292145,72.927986 490.224976,72.927986 
	C490.224976,68.834419 490.224976,65.127327 490.224976,61.007652 
	C498.003815,61.007652 505.565247,61.007652 513.599365,61.036102 
	C514.071960,61.064548 514.002441,60.999382 513.997314,61.431561 
	C513.972595,65.597984 513.953064,69.332230 513.966431,73.032013 
	C513.999390,72.997543 514.064636,72.927986 514.064636,72.927986 
z"/>
<path fill="#FFFFFF" opacity="1.000000" stroke="none" 
	d="
M525.962891,61.031975 
	C533.815063,61.064556 541.702026,61.064556 549.777222,61.064556 
	C549.777222,65.161018 549.777222,68.868141 549.777222,72.991478 
	C542.001038,72.991478 534.439941,72.991478 526.439697,72.994522 
	C526.000488,72.997574 526.066467,73.066475 526.037170,72.601410 
	C526.027405,68.402069 526.046936,64.667801 526.066467,60.933529 
	C526.066467,60.933529 525.997620,60.999393 525.962891,61.031975 
z"/>
<path fill="#FFFFFF" opacity="1.000000" stroke="none" 
	d="
M525.967896,72.962799 
	C525.935303,80.815750 525.935303,88.703476 525.935303,96.775970 
	C521.836975,96.775970 518.129639,96.775970 514.007629,96.775970 
	C514.007629,88.997475 514.007629,81.435318 514.036133,73.400574 
	C514.064636,72.927986 513.999390,72.997543 514.431519,73.002747 
	C518.597961,73.027451 522.332214,73.046959 526.066467,73.066475 
	C526.066467,73.066475 526.000488,72.997574 525.967896,72.962799 
z"/>
<path fill="#050607" opacity="1.000000" stroke="none" 
	d="
M363.100189,484.243530 
	C373.551483,488.984131 383.992432,494.206543 394.666595,499.678284 
	C385.745758,499.925293 376.590210,499.829620 367.438385,499.971802 
	C364.268951,500.021057 362.845825,499.048767 363.034119,495.709930 
	C363.239960,492.058960 363.086609,488.387726 363.100189,484.243530 
z"/>
<path fill="#050607" opacity="1.000000" stroke="none" 
	d="
M128.019531,367.909729 
	C131.715485,367.932892 135.411423,367.956085 140.032135,368.010132 
	C144.885208,368.040955 148.813522,368.040955 152.984100,368.040955 
	C152.984100,372.824249 152.984100,376.917633 152.976837,381.023010 
	C152.969589,381.035034 152.948135,381.055145 152.948135,381.055145 
	C148.890793,381.055145 144.833450,381.055145 140.043732,381.055145 
	C140.043732,377.989655 140.043732,374.948273 139.960358,371.449036 
	C138.676376,370.257843 137.543533,369.078186 136.261139,368.883423 
	C133.529709,368.468689 130.720627,368.565308 127.811020,368.206604 
	C127.678658,367.960876 128.019531,367.909729 128.019531,367.909729 
z"/>
<path fill="#000000" opacity="1.000000" stroke="none" 
	d="
M219.046722,263.116516 
	C219.033768,259.172394 219.020828,255.228271 219.005615,250.856384 
	C223.034805,250.288803 227.066269,250.148972 231.563324,250.018677 
	C232.028915,250.028198 232.034729,250.033844 232.049042,250.502258 
	C232.063354,254.988663 232.063354,259.006653 232.063354,263.116516 
	C227.233734,263.116516 223.140228,263.116516 219.046722,263.116516 
z"/>
<path fill="#000000" opacity="1.000000" stroke="none" 
	d="
M218.887421,484.562561 
	C214.870407,485.348846 210.899902,485.669891 206.428040,485.534790 
	C205.926666,481.200836 205.926666,477.322968 205.926666,473.030731 
	C210.824799,473.030731 214.928650,473.030731 219.032486,473.030731 
	C219.032486,473.030731 219.033066,473.058624 219.009888,473.220459 
	C218.986725,473.382263 218.921555,473.691681 218.921555,473.691681 
	C218.925674,477.160248 218.929810,480.628784 218.887421,484.562561 
z"/>
<path fill="#FFFFFF" opacity="1.000000" stroke="none" 
	d="
M570.006470,596.799438 
	C570.001343,593.379578 570.001343,590.433167 570.001343,587.249023 
	C574.078369,587.249023 577.792664,587.249023 581.755188,587.249023 
	C581.755188,591.087524 581.755188,594.801636 581.755188,599.742859 
	C577.616882,598.872437 573.814209,598.072693 570.006470,596.799438 
z"/>
<path fill="#FFFFFF" opacity="1.000000" stroke="none" 
	d="
M660.900208,562.999939 
	C658.136902,563.000000 655.846985,563.000000 653.280212,563.000000 
	C653.280212,558.988647 653.280212,555.273254 653.280212,551.276001 
	C657.020447,551.276001 660.735657,551.276001 664.998901,551.276001 
	C664.998901,554.227478 664.801880,557.170471 665.052368,560.074829 
	C665.321655,563.197021 663.490173,563.153687 660.900208,562.999939 
z"/>
<path fill="#FFFFFF" opacity="1.000000" stroke="none" 
	d="
M563.951965,563.000000 
	C561.511292,563.000000 559.549377,563.000000 557.294922,563.000000 
	C557.294922,559.019165 557.294922,555.304260 557.294922,551.291626 
	C560.987183,551.291626 564.702271,551.291626 568.711670,551.291626 
	C568.711670,554.993835 568.711670,558.708618 568.711670,562.764465 
	C567.294067,562.842468 565.862366,562.921265 563.951965,563.000000 
z"/>
<path fill="#FFFFFF" opacity="1.000000" stroke="none" 
	d="
M636.006470,526.799377 
	C636.001343,523.379578 636.001343,520.433167 636.001343,517.249023 
	C640.078369,517.249023 643.792664,517.249023 647.755188,517.249023 
	C647.755188,521.087524 647.755188,524.801636 647.755188,529.742798 
	C643.616943,528.872437 639.814209,528.072632 636.006470,526.799377 
z"/>
<path fill="#FFFFFF" opacity="1.000000" stroke="none" 
	d="
M575.048035,517.000000 
	C577.488708,517.000000 579.450623,517.000000 581.705078,517.000000 
	C581.705078,520.980835 581.705078,524.695740 581.705078,528.708374 
	C578.012817,528.708374 574.297729,528.708374 570.288330,528.708374 
	C570.288330,525.006165 570.288330,521.291382 570.288330,517.235535 
	C571.705933,517.157532 573.137634,517.078735 575.048035,517.000000 
z"/>
<path fill="#FFFFFF" opacity="1.000000" stroke="none" 
	d="
M610.999878,503.000000 
	C613.108521,503.000000 614.743774,503.000000 616.688721,503.000000 
	C616.688721,506.949554 616.688721,510.664886 616.688721,514.693237 
	C613.042847,514.693237 609.327026,514.693237 605.302490,514.693237 
	C605.302490,511.036163 605.302490,507.320190 605.302490,503.000000 
	C607.016235,503.000000 608.771362,503.000000 610.999878,503.000000 
z"/>
<path fill="#FFFFFF" opacity="1.000000" stroke="none" 
	d="
M636.000732,595.851562 
	C636.000061,592.754944 636.000061,590.136475 636.000061,587.264160 
	C640.045349,587.264160 643.759583,587.264160 647.739258,587.264160 
	C647.739258,591.052673 647.739258,594.766724 647.739258,598.995605 
	C644.574280,598.995605 641.459839,599.189209 638.397949,598.873352 
	C637.520935,598.782837 636.795959,597.218384 636.000732,595.851562 
z"/>
<path fill="#FFFFFF" opacity="1.000000" stroke="none" 
	d="
M608.151550,610.999268 
	C606.783020,610.039917 605.263000,609.164062 605.123474,608.106262 
	C604.759766,605.348572 605.001099,602.511108 605.001099,599.353149 
	C608.863953,599.353149 612.579590,599.353149 616.650513,599.353149 
	C616.650513,602.870911 616.650513,606.586487 616.650513,610.999939 
	C614.107849,610.999939 611.368469,610.999939 608.151550,610.999268 
z"/>
<path fill="#FFFFFF" opacity="1.000000" stroke="none" 
	d="
M211.000061,127.900261 
	C210.999985,125.136932 210.999985,122.847000 210.999985,120.280212 
	C215.011780,120.280212 218.727081,120.280212 222.724030,120.280212 
	C222.724030,124.020691 222.724030,127.735886 222.724030,131.998871 
	C219.772522,131.998871 216.829559,131.801865 213.925217,132.052368 
	C210.803101,132.321671 210.846252,130.490280 211.000061,127.900261 
z"/>
<path fill="#FFFFFF" opacity="1.000000" stroke="none" 
	d="
M171.848587,168.000748 
	C173.217072,168.960159 174.736969,169.835999 174.876480,170.893875 
	C175.240158,173.651535 174.998871,176.488968 174.998871,179.646912 
	C171.135956,179.646912 167.420288,179.646912 163.349442,179.646912 
	C163.349442,176.130768 163.349442,172.416702 163.349442,168.000122 
	C165.892288,168.000122 168.631653,168.000122 171.848587,168.000748 
z"/>
<path fill="#FFFFFF" opacity="1.000000" stroke="none" 
	d="
M339.000000,664.999878 
	C339.000000,667.108521 339.000000,668.743774 339.000000,670.688721 
	C335.050476,670.688721 331.335114,670.688721 327.306763,670.688721 
	C327.306763,667.042908 327.306763,663.327087 327.306763,659.302490 
	C330.965454,659.302490 334.681122,659.302490 339.000000,659.302490 
	C339.000000,661.016235 339.000000,662.771423 339.000000,664.999878 
z"/>
<path fill="#FFFFFF" opacity="1.000000" stroke="none" 
	d="
M268.799805,168.006500 
	C269.848785,169.614075 270.703857,171.178238 270.929932,172.828552 
	C271.218750,174.936874 271.000000,177.114731 271.000000,179.631149 
	C267.167603,179.631149 263.451172,179.631149 259.364319,179.631149 
	C259.364319,176.159103 259.364319,172.442749 259.364319,168.001373 
	C262.193909,168.001373 265.260132,168.001373 268.799805,168.006500 
z"/>
<path fill="#FFFFFF" opacity="1.000000" stroke="none" 
	d="
M211.055450,217.248611 
	C214.798096,216.401230 218.496918,216.028458 222.617004,215.613220 
	C222.617004,219.804840 222.617004,223.520798 222.617004,227.621460 
	C219.188950,227.621460 215.472443,227.621460 211.011612,227.621460 
	C211.011612,224.507980 211.011612,221.115585 211.055450,217.248611 
z"/>
<path fill="#090605" opacity="1.000000" stroke="none" 
	d="
M219.391235,473.722626 
	C218.921555,473.691681 218.986725,473.382263 219.021561,473.228058 
	C223.146957,473.202942 227.237518,473.332031 231.660782,473.694824 
	C227.949295,473.870209 223.905121,473.811890 219.391235,473.722626 
z"/>
<path fill="#060505" opacity="1.000000" stroke="none" 
	d="
M127.760925,342.190796 
	C127.837173,342.369415 127.670280,342.567017 127.315338,342.852783 
	C127.141273,342.644836 127.271439,342.401154 127.760925,342.190796 
z"/>
<path fill="#060505" opacity="1.000000" stroke="none" 
	d="
M127.897217,367.743591 
	C128.019531,367.909729 127.678658,367.960876 127.508171,367.977478 
	C127.337685,367.994049 127.158699,367.527496 127.160355,367.277832 
	C127.393066,367.181396 127.597366,367.364471 127.897217,367.743591 
z"/>
<path fill="#020202" opacity="1.000000" stroke="none" 
	d="
M179.941483,459.928040 
	C179.823410,457.887329 179.724014,455.855011 179.552979,453.389832 
	C179.565262,451.149353 179.649185,449.341644 179.759781,446.959686 
	C183.906342,446.959686 187.980820,446.959686 192.520844,446.971283 
	C192.986420,446.982880 192.975632,446.971222 192.908875,447.428497 
	C192.842133,451.788605 192.842133,455.691437 192.842133,459.968781 
	C188.124680,459.968781 184.054764,459.968781 179.984848,459.968781 
	C179.984848,459.968781 179.960175,459.936371 179.941483,459.928040 
z"/>
<path fill="#000000" opacity="1.000000" stroke="none" 
	d="
M204.884262,407.567871 
	C196.625320,407.567871 188.366364,407.567871 179.675659,407.567871 
	C179.675659,403.787018 179.675659,400.491058 179.830475,396.387177 
	C179.986649,395.066162 179.987991,394.553009 179.981628,394.021790 
	C179.973907,394.003662 179.967209,394.044556 180.428391,394.148071 
	C188.905365,394.270111 196.921173,394.288666 205.000702,394.746521 
	C205.004395,399.313171 204.944321,403.440521 204.884262,407.567871 
z"/>
<path fill="#050607" opacity="1.000000" stroke="none" 
	d="
M153.087616,390.233398 
	C152.986206,387.190643 153.042191,384.559784 153.023163,381.492065 
	C152.948135,381.055145 152.969589,381.035034 153.442047,381.096985 
	C158.732346,381.200623 163.550140,381.270020 168.368027,381.278320 
	C179.434341,381.297363 179.431137,381.285370 179.737274,392.070496 
	C179.755997,392.730164 179.887939,393.386597 179.967209,394.044556 
	C179.967209,394.044556 179.973907,394.003662 179.516907,393.963776 
	C173.272095,394.048615 167.484268,394.173340 161.696457,394.298065 
	C160.056595,394.317780 158.400452,394.198212 156.780411,394.387543 
	C153.814133,394.734222 153.003296,393.232819 153.087616,390.233398 
z"/>
<path fill="#263753" opacity="1.000000" stroke="none" 
	d="
M161.939697,394.591553 
	C167.484268,394.173340 173.272095,394.048615 179.524628,393.981873 
	C179.987991,394.553009 179.986649,395.066162 179.857346,395.945129 
	C175.661880,396.021576 171.593002,395.749512 167.527451,395.434662 
	C165.742462,395.296387 163.964233,395.070892 161.939697,394.591553 
z"/>
<path fill="#263753" opacity="1.000000" stroke="none" 
	d="
M205.097656,407.757690 
	C204.944321,403.440521 205.004395,399.313171 205.156738,394.587830 
	C205.249008,393.989838 205.675705,393.859222 205.675705,393.859222 
	C205.747070,398.303436 205.818436,402.747681 205.869843,407.664490 
	C205.670258,408.073853 205.490662,408.010681 205.097656,407.757690 
z"/>
<path fill="#D987FE" opacity="1.000000" stroke="none" 
	d="
M342.106689,263.754700 
	C332.625427,273.544861 324.488647,284.291656 318.014038,296.342621 
	C308.887177,313.330170 303.333252,331.331726 301.523376,351.013855 
	C301.292969,359.409882 301.192200,367.327393 301.180237,375.726440 
	C303.121368,386.284119 304.973785,396.360199 306.364014,406.831604 
	C303.279602,407.893799 298.594666,408.211029 298.411560,409.291382 
	C297.797638,412.913086 297.487579,418.806641 299.486511,420.109558 
	C302.210022,421.884735 307.496338,422.804138 311.033325,419.062225 
	C315.977631,428.112305 320.921906,437.162415 325.484436,446.587219 
	C307.209839,446.975372 289.316956,446.992432 271.424072,447.000946 
	C258.371368,447.007172 258.371368,447.002197 258.551361,433.893311 
	C262.159851,433.911041 265.318665,434.068665 268.452667,433.857758 
	C269.548218,433.784027 271.160339,433.062927 271.552551,432.193542 
	C274.389740,425.904449 271.244110,420.907288 264.650299,420.916290 
	C258.124939,420.925201 258.123535,420.925201 258.111694,427.443207 
	C258.107788,429.597961 258.113220,431.752747 257.643005,433.907410 
	C255.673218,433.910339 254.174774,433.921997 252.676407,433.914917 
	C244.180069,433.874725 244.783554,434.505463 245.230179,426.466614 
	C245.540131,420.887390 242.723648,420.433228 238.602432,420.925262 
	C234.079391,421.465271 231.855164,420.587189 231.894806,414.954254 
	C232.175964,374.998077 232.105789,335.038757 231.957611,295.081146 
	C231.941284,290.677277 232.884918,288.860352 237.698105,289.080505 
	C245.905365,289.455811 245.318130,289.708038 244.994705,281.520874 
	C244.814682,276.963531 246.425797,275.848175 250.707901,275.992645 
	C258.878174,276.268341 258.383972,276.749542 258.052704,268.479645 
	C257.868103,263.871490 259.597473,262.966492 263.812225,262.997253 
	C288.118805,263.174683 312.427399,263.069641 336.735199,263.112701 
	C338.526062,263.115875 340.316223,263.531067 342.106689,263.754700 
M258.144897,291.894257 
	C258.133606,292.887299 258.114258,293.880341 258.112335,294.873413 
	C258.096588,302.909210 258.097565,302.909210 265.614929,302.889069 
	C271.932739,302.872162 271.994232,302.870728 271.804047,294.591980 
	C271.765045,292.893494 271.561340,290.802490 270.567963,289.618896 
	C269.215424,288.007385 260.194946,289.346802 258.144897,291.894257 
M245.052017,390.214935 
	C244.767014,393.291748 245.976318,394.681793 249.256119,394.846130 
	C258.268494,395.297821 258.078613,395.413452 258.219574,386.514374 
	C258.283264,382.494965 257.175201,380.535431 252.920883,381.085846 
	C251.614136,381.254883 250.263229,381.184784 248.940018,381.103149 
	C246.259720,380.937805 244.850708,381.968719 245.038437,384.824463 
	C245.136261,386.312286 245.051514,387.812164 245.052017,390.214935 
M292.418945,368.083618 
	C296.850403,368.787018 298.606415,366.869598 297.972076,362.498260 
	C297.829956,361.519043 298.188385,360.424744 297.895874,359.519257 
	C297.400543,357.985840 296.614258,355.326477 295.873230,355.300049 
	C292.353790,355.174377 287.596436,354.550659 285.632874,356.488525 
	C283.875549,358.222870 284.734924,363.162567 285.437012,366.476776 
	C285.632233,367.398376 289.372498,367.568939 292.418945,368.083618 
z"/>
<path fill="#353554" opacity="1.000000" stroke="none" 
	d="
M499.959106,278.050781 
	C500.326965,278.137390 500.711060,278.201599 501.095123,278.265808 
	C500.794525,278.307770 500.493958,278.349701 500.100403,278.187439 
	C500.007446,277.983215 499.975342,278.028320 499.959106,278.050781 
z"/>
<path fill="#FFBE92" opacity="1.000000" stroke="none" 
	d="
M258.091949,433.888245 
	C258.371368,447.002197 258.371368,447.007172 271.424072,447.000946 
	C289.316956,446.992432 307.209839,446.975372 325.571289,446.919861 
	C329.488861,451.050262 332.937897,455.222778 336.498779,459.685760 
	C301.973572,459.976227 267.336517,459.976227 232.268250,459.976227 
	C232.268250,455.775909 232.268250,451.691223 232.268250,447.190308 
	C227.773544,447.190308 223.686478,447.190308 219.015198,447.190308 
	C219.015198,385.861176 219.015198,324.949921 219.030960,263.577576 
	C223.140228,263.116516 227.233734,263.116516 232.063354,263.116516 
	C232.063354,259.006653 232.063354,254.988663 232.054062,250.507172 
	C273.391235,250.034866 314.737701,250.026047 356.553925,250.074219 
	C352.226746,254.565201 347.429810,258.999176 342.369781,263.593933 
	C340.316223,263.531067 338.526062,263.115875 336.735199,263.112701 
	C312.427399,263.069641 288.118805,263.174683 263.812225,262.997253 
	C259.597473,262.966492 257.868103,263.871490 258.052704,268.479645 
	C258.383972,276.749542 258.878174,276.268341 250.707901,275.992645 
	C246.425797,275.848175 244.814682,276.963531 244.994705,281.520874 
	C245.318130,289.708038 245.905365,289.455811 237.698105,289.080505 
	C232.884918,288.860352 231.941284,290.677277 231.957611,295.081146 
	C232.105789,335.038757 232.175964,374.998077 231.894806,414.954254 
	C231.855164,420.587189 234.079391,421.465271 238.602432,420.925262 
	C242.723648,420.433228 245.540131,420.887390 245.230179,426.466614 
	C244.783554,434.505463 244.180069,433.874725 252.676407,433.914917 
	C254.174774,433.921997 255.673218,433.910339 257.589417,433.953369 
	C258.007233,433.999451 258.091949,433.888245 258.091949,433.888245 
z"/>
<path fill="#FD2CFF" opacity="1.000000" stroke="none" 
	d="
M310.964844,418.684875 
	C307.496338,422.804138 302.210022,421.884735 299.486511,420.109558 
	C297.487579,418.806641 297.797638,412.913086 298.411560,409.291382 
	C298.594666,408.211029 303.279602,407.893799 306.338531,407.231293 
	C308.148895,410.926300 309.522614,414.616913 310.964844,418.684875 
z"/>
<path fill="#353554" opacity="1.000000" stroke="none" 
	d="
M384.933838,451.057983 
	C384.685669,450.711426 384.410736,450.382416 384.162476,450.034363 
	C384.138611,450.000946 384.280640,449.849213 384.345642,449.752441 
	C384.594818,450.067535 384.843964,450.382599 384.984680,450.898010 
	C384.876251,451.098297 384.914520,451.070282 384.933838,451.057983 
z"/>
<path fill="#353554" opacity="1.000000" stroke="none" 
	d="
M483.110291,429.133545 
	C483.457520,428.723145 483.955994,428.496521 484.454498,428.269897 
	C484.309479,428.623871 484.164429,428.977844 483.801727,429.499634 
	C483.584076,429.667450 483.261536,429.317291 483.110291,429.133545 
z"/>
<path fill="#808080" opacity="1.000000" stroke="none" 
	d="
M205.723190,393.399719 
	C205.675705,393.859222 205.249008,393.989838 205.092987,394.148560 
	C196.921173,394.288666 188.905365,394.270111 180.428391,394.148071 
	C179.887939,393.386597 179.755997,392.730164 179.737274,392.070496 
	C179.431137,381.285370 179.434341,381.297363 168.368027,381.278320 
	C163.550140,381.270020 158.732346,381.200623 153.449310,381.084961 
	C152.984100,376.917633 152.984100,372.824249 152.984100,368.040955 
	C148.813522,368.040955 144.885208,368.040955 140.494507,368.015686 
	C140.044693,359.631958 140.057266,351.273529 140.021637,342.446472 
	C148.401108,341.984772 156.828781,341.991669 165.742432,341.970215 
	C166.228394,350.522247 166.228394,359.102631 166.228394,368.193481 
	C179.797928,368.193481 192.500427,368.193481 205.770676,368.193481 
	C205.770676,376.782135 205.770676,384.861206 205.723190,393.399719 
z"/>
<path fill="#818181" opacity="1.000000" stroke="none" 
	d="
M179.906311,460.434265 
	C184.054764,459.968781 188.124680,459.968781 192.842133,459.968781 
	C192.842133,455.691437 192.842133,451.788605 192.903351,447.421936 
	C197.071198,446.958099 201.177841,446.958099 205.858078,446.958099 
	C205.858078,451.487183 205.858078,455.537781 205.858078,459.998718 
	C210.338470,459.998718 214.253799,459.998718 218.980118,459.998718 
	C218.980118,464.309662 218.980118,468.203705 219.006302,472.564240 
	C214.928650,473.030731 210.824799,473.030731 205.926666,473.030731 
	C205.926666,477.322968 205.926666,481.200836 205.972580,485.542053 
	C197.573669,486.005402 189.128845,486.005402 179.827774,486.005402 
	C179.827774,477.637390 179.827774,469.268555 179.906311,460.434265 
z"/>
<path fill="#7C7C7C" opacity="1.000000" stroke="none" 
	d="
M271.988129,486.960510 
	C263.236359,486.926544 254.490067,486.926544 245.433777,486.926544 
	C245.433777,481.982971 245.433777,478.072845 245.433777,473.696503 
	C253.930527,473.696503 262.430756,473.696503 271.631348,473.696503 
	C271.631348,477.892578 271.631348,481.994324 271.778564,486.539642 
	C271.925751,486.983215 271.993591,486.994476 271.988129,486.960510 
z"/>
<path fill="#4B2C57" opacity="1.000000" stroke="none" 
	d="
M526.037170,72.601410 
	C522.332214,73.046959 518.597961,73.027451 514.398621,73.037209 
	C513.953064,69.332230 513.972595,65.597984 513.962830,61.398636 
	C517.667786,60.953037 521.402039,60.972549 525.601379,60.962791 
	C526.046936,64.667801 526.027405,68.402069 526.037170,72.601410 
z"/>
<path fill="#FD2CFF" opacity="1.000000" stroke="none" 
	d="
M258.194061,291.453857 
	C260.194946,289.346802 269.215424,288.007385 270.567963,289.618896 
	C271.561340,290.802490 271.765045,292.893494 271.804047,294.591980 
	C271.994232,302.870728 271.932739,302.872162 265.614929,302.889069 
	C258.097565,302.909210 258.096588,302.909210 258.112335,294.873413 
	C258.114258,293.880341 258.133606,292.887299 258.194061,291.453857 
z"/>
<path fill="#FD2CFF" opacity="1.000000" stroke="none" 
	d="
M245.050629,389.760742 
	C245.051514,387.812164 245.136261,386.312286 245.038437,384.824463 
	C244.850708,381.968719 246.259720,380.937805 248.940018,381.103149 
	C250.263229,381.184784 251.614136,381.254883 252.920883,381.085846 
	C257.175201,380.535431 258.283264,382.494965 258.219574,386.514374 
	C258.078613,395.413452 258.268494,395.297821 249.256119,394.846130 
	C245.976318,394.681793 244.767014,393.291748 245.050629,389.760742 
z"/>
<path fill="#FD2CFF" opacity="1.000000" stroke="none" 
	d="
M258.060791,433.953491 
	C258.113220,431.752747 258.107788,429.597961 258.111694,427.443207 
	C258.123535,420.925201 258.124939,420.925201 264.650299,420.916290 
	C271.244110,420.907288 274.389740,425.904449 271.552551,432.193542 
	C271.160339,433.062927 269.548218,433.784027 268.452667,433.857758 
	C265.318665,434.068665 262.159851,433.911041 258.551361,433.893311 
	C258.091949,433.888245 258.007233,433.999451 258.060791,433.953491 
z"/>
<path fill="#FD2CFF" opacity="1.000000" stroke="none" 
	d="
M291.952667,368.083832 
	C289.372498,367.568939 285.632233,367.398376 285.437012,366.476776 
	C284.734924,363.162567 283.875549,358.222870 285.632874,356.488525 
	C287.596436,354.550659 292.353790,355.174377 295.873230,355.300049 
	C296.614258,355.326477 297.400543,357.985840 297.895874,359.519257 
	C298.188385,360.424744 297.829956,361.519043 297.972076,362.498260 
	C298.606415,366.869598 296.850403,368.787018 291.952667,368.083832 
z"/>
</svg>